<svg width="71" height="71" viewBox="0 0 71 71" fill="none" xmlns="http://www.w3.org/2000/svg">
<g clip-path="url(#clip0)">
<path d="M51.6319 71C51.1349 71 50.626 70.9379 50.1231 70.8047L4.3784 58.5543C1.24257 57.6905 -0.627101 54.4422 0.195315 51.3064L5.96702 29.7934C6.18002 29.0035 6.99061 28.545 7.77752 28.7461C8.5674 28.9562 9.03482 29.7697 8.82477 30.5566L3.05602 52.0637C2.64482 53.6316 3.58557 55.2646 5.15644 55.6995L50.8834 67.944C52.4543 68.3582 54.0754 67.4234 54.4837 65.8614L56.7942 57.3C57.0072 56.5101 57.8177 56.0397 58.6076 56.2557C59.3975 56.4687 59.8619 57.2822 59.6519 58.0691L57.3444 66.6187C56.6492 69.2516 54.2529 71 51.6319 71Z" fill="black"/>
<path d="M65.083 53.25H17.7497C14.4866 53.25 11.833 50.5964 11.833 47.3333V11.8333C11.833 8.57028 14.4866 5.91666 17.7497 5.91666H65.083C68.3461 5.91666 70.9997 8.57028 70.9997 11.8333V47.3333C70.9997 50.5964 68.3461 53.25 65.083 53.25ZM17.7497 8.87499C16.1196 8.87499 14.7913 10.2033 14.7913 11.8333V47.3333C14.7913 48.9634 16.1196 50.2917 17.7497 50.2917H65.083C66.7131 50.2917 68.0413 48.9634 68.0413 47.3333V11.8333C68.0413 10.2033 66.7131 8.87499 65.083 8.87499H17.7497Z" fill="black"/>
<path d="M26.6247 26.625C23.3616 26.625 20.708 23.9714 20.708 20.7083C20.708 17.4453 23.3616 14.7917 26.6247 14.7917C29.8877 14.7917 32.5413 17.4453 32.5413 20.7083C32.5413 23.9714 29.8877 26.625 26.6247 26.625ZM26.6247 17.75C24.9946 17.75 23.6663 19.0783 23.6663 20.7083C23.6663 22.3384 24.9946 23.6667 26.6247 23.6667C28.2547 23.6667 29.583 22.3384 29.583 20.7083C29.583 19.0783 28.2547 17.75 26.6247 17.75Z" fill="black"/>
<path d="M13.5195 50.0846C13.1408 50.0846 12.7621 49.9396 12.4722 49.6527C11.8953 49.0758 11.8953 48.138 12.4722 47.5611L26.4444 33.5889C28.1188 31.9145 31.0446 31.9145 32.719 33.5889L36.8784 37.7483L48.3923 23.9329C49.2295 22.93 50.4602 22.3473 51.7707 22.3354H51.8032C53.099 22.3354 54.3267 22.8975 55.1728 23.8826L70.6449 41.9344C71.1774 42.5527 71.1064 43.4875 70.4851 44.02C69.8668 44.5525 68.9349 44.4845 68.3995 43.8603L52.9274 25.8085C52.6404 25.4772 52.244 25.2938 51.8032 25.2938C51.4956 25.2671 50.9542 25.4801 50.6672 25.8262L38.115 40.8871C37.8488 41.2066 37.4612 41.3989 37.0441 41.4167C36.624 41.4462 36.2247 41.2806 35.9318 40.9847L30.6275 35.6805C30.0684 35.1243 29.0951 35.1243 28.5359 35.6805L14.5637 49.6527C14.2768 49.9396 13.8981 50.0846 13.5195 50.0846Z" fill="black"/>
</g>
<defs>
<clipPath id="clip0">
<rect width="71" height="71" fill="white"/>
</clipPath>
</defs>
</svg>
