<svg width="500" height="373" viewBox="0 0 500 373" fill="none" xmlns="http://www.w3.org/2000/svg">
<path d="M0 327.695H500V327.445H0V327.695Z" fill="#E7E7E7"/>
<path d="M124.828 342.824H91.7031V342.574H124.828V342.824Z" fill="#E7E7E7"/>
<path d="M81.2227 342.824H62.0312V342.574H81.2227V342.824Z" fill="#E7E7E7"/>
<path d="M210.555 346.508H191.363V346.258H210.555V346.508Z" fill="#E7E7E7"/>
<path d="M310.617 352.09H267.426V351.84H310.617V352.09Z" fill="#E7E7E7"/>
<path d="M258.52 352.09H252.188V351.84H258.52V352.09Z" fill="#E7E7E7"/>
<path d="M453.344 346.508H359.668V346.258H453.344V346.508Z" fill="#E7E7E7"/>
<path d="M43.9141 0.25C40.9062 0.25 38.457 2.69922 38.457 5.70703V277.141C38.457 280.148 40.9062 282.598 43.9141 282.598H237.016C240.023 282.598 242.473 280.148 242.473 277.141V5.70703C242.473 2.69922 240.023 0.25 237.016 0.25H43.9141ZM237.016 282.848H43.9141C40.7695 282.848 38.207 280.289 38.207 277.141V5.70703C38.207 2.5625 40.7695 0 43.9141 0H237.016C240.16 0 242.723 2.5625 242.723 5.70703V277.141C242.723 280.289 240.16 282.848 237.016 282.848Z" fill="#E7E7E7"/>
<path d="M260.211 0.25C257.203 0.25 254.754 2.69922 254.754 5.70703V277.141C254.754 280.148 257.203 282.598 260.211 282.598H453.312C456.32 282.598 458.77 280.148 458.77 277.141V5.70703C458.77 2.69922 456.32 0.25 453.312 0.25H260.211ZM453.312 282.848H260.211C257.066 282.848 254.504 280.289 254.504 277.141V5.70703C254.504 2.5625 257.066 0 260.211 0H453.312C456.457 0 459.02 2.5625 459.02 5.70703V277.141C459.02 280.289 456.457 282.848 453.312 282.848Z" fill="#E7E7E7"/>
<path d="M245.41 329.262H267.398V242.027H245.41V329.262Z" fill="#E1E1E1"/>
<path d="M263.223 329.262H267.398V317.379H258.844L263.223 329.262Z" fill="#FBFCFD"/>
<path d="M149.055 329.262H171.043V242.027H149.055V329.262Z" fill="#E1E1E1"/>
<path d="M167.398 321.969H267.398V242.027H167.398V321.969Z" fill="#FBFCFD"/>
<path d="M264.16 245.57H170.641V267.492H264.16V245.57ZM263.773 245.957V267.105H171.023V245.957H263.773Z" fill="#E1E1E1"/>
<path d="M171.574 329.262H167.398V317.379H175.953L171.574 329.262Z" fill="#FBFCFD"/>
<path d="M215.188 256.531C215.188 257.754 216.18 258.742 217.398 258.742C218.621 258.742 219.609 257.754 219.609 256.531C219.609 255.309 218.621 254.32 217.398 254.32C216.18 254.32 215.188 255.309 215.188 256.531Z" fill="#E7E7E7"/>
<path d="M264.16 271.035H170.641V292.957H264.16V271.035ZM263.773 271.422V292.574H171.023V271.422H263.773Z" fill="#E1E1E1"/>
<path d="M215.188 281.996C215.188 283.219 216.18 284.211 217.398 284.211C218.621 284.211 219.609 283.219 219.609 281.996C219.609 280.777 218.621 279.785 217.398 279.785C216.18 279.785 215.188 280.777 215.188 281.996Z" fill="#E7E7E7"/>
<path d="M264.16 296.504H170.641V318.426H264.16V296.504ZM263.773 296.891V318.039H171.023V296.891H263.773Z" fill="#E1E1E1"/>
<path d="M215.188 307.465C215.188 308.687 216.18 309.676 217.398 309.676C218.621 309.676 219.609 308.687 219.609 307.465C219.609 306.242 218.621 305.254 217.398 305.254C216.18 305.254 215.188 306.242 215.188 307.465Z" fill="#E7E7E7"/>
<path d="M135.621 329.262H157.609V191.363H135.621V329.262Z" fill="#E1E1E1"/>
<path d="M153.434 329.262H157.609V317.379H149.055L153.434 329.262Z" fill="#FBFCFD"/>
<path d="M75.4258 329.262H53.4375V191.363H75.4258V329.262Z" fill="#E1E1E1"/>
<path d="M71.7812 321.969H157.609V191.363H71.7812V321.969Z" fill="#FBFCFD"/>
<path d="M154.371 194.605H75.0234V225.09H154.371V194.605ZM153.914 195.062V224.633H75.4766V195.062H153.914Z" fill="#E1E1E1"/>
<path d="M154.371 227.77H116.098V307.117H154.371V227.77ZM153.914 228.227V306.664H116.555V228.227H153.914Z" fill="#E1E1E1"/>
<path d="M113.297 227.77H75.0234V307.117H113.297V227.77ZM112.84 228.227V306.664H75.4766V228.227H112.84Z" fill="#E1E1E1"/>
<path d="M75.9609 329.262H71.7812V317.379H80.3398L75.9609 329.262Z" fill="#FBFCFD"/>
<path d="M112.484 209.848C112.484 211.07 113.477 212.059 114.695 212.059C115.918 212.059 116.906 211.07 116.906 209.848C116.906 208.629 115.918 207.637 114.695 207.637C113.477 207.637 112.484 208.629 112.484 209.848Z" fill="#E7E7E7"/>
<path d="M120.402 265.574C120.402 266.797 121.395 267.785 122.613 267.785C123.836 267.785 124.828 266.797 124.828 265.574C124.828 264.352 123.836 263.363 122.613 263.363C121.395 263.363 120.402 264.352 120.402 265.574Z" fill="#E7E7E7"/>
<path d="M104.566 265.574C104.566 266.797 105.559 267.785 106.777 267.785C108 267.785 108.988 266.797 108.988 265.574C108.988 264.352 108 263.363 106.777 263.363C105.559 263.363 104.566 264.352 104.566 265.574Z" fill="#E7E7E7"/>
<path d="M102.074 152.918H92.7969C92.7969 152.918 94.4102 161.492 94.4102 166.539C94.4102 171.586 87.3516 191.363 97.4375 191.363C107.52 191.363 100.465 171.586 100.465 166.539C100.465 161.492 102.074 152.918 102.074 152.918Z" fill="#E1E1E1"/>
<path d="M66.8047 173.195V179.223C66.8047 185.902 72.2656 191.363 78.9453 191.363H84.9688C91.6484 191.363 97.1094 185.902 97.1094 179.223V173.195H66.8047Z" fill="#F6F7F8"/>
<path d="M195.668 229.312C195.668 236.305 203.496 242.027 213.07 242.027H221.707C231.281 242.027 239.109 236.305 239.109 229.312H195.668Z" fill="#E1E1E1"/>
<path d="M424.605 219.078C419.367 223.355 412.137 231.188 405.508 242.207C401.094 249.543 398.434 257.23 397.266 267.391C397.289 255.891 397.324 243.535 397.367 231.875C398.695 228.875 401.738 221.961 403.918 216.496C411.195 198.266 413.906 193.781 420.449 178.059C429.18 157.086 438.125 132.195 435.563 134.184C430.344 138.238 410.344 175.688 408.184 181.051C400.746 199.488 398.676 212.93 397.387 225.902C397.43 214.949 397.473 204.895 397.512 197.137C397.645 171.828 398.074 163.66 398.285 161.141C399.098 159.859 400.051 158.367 400.605 157.562C405.305 150.77 407.117 144.984 411.543 134.852C417.816 120.496 423.219 95.0039 421.641 96.2891C415.063 101.645 409.879 113.152 403.063 127.816C396.246 142.48 398.195 150.914 396.844 163.441C396.559 165.898 396.344 175.172 396.184 188.027C394.418 174.332 391.102 165.309 385.051 157.105C377.609 147.02 370.41 140.207 365.129 136.648C359.844 133.09 374.246 157.867 381.137 168.684C387.27 178.312 392.922 186.812 396.105 195.184C395.938 212.605 395.859 234.664 395.859 255.203C394.277 245.855 391.699 235.793 388.258 228C384.121 218.637 377.758 204.277 372.691 199.406C371.477 198.234 377.988 226.164 382.168 233.594C386.348 241.02 389.418 248.02 392.047 252.227C392.66 253.211 394.695 256.996 395.859 259.176C395.871 284.246 396 306.367 396.219 313.898H397.301C397.227 311.957 397.215 299.203 397.238 282.324C399.848 273.16 405.813 262.699 410.734 253.16C416.105 242.746 429.848 214.801 424.605 219.078Z" fill="#E1E1E1"/>
<path d="M412.441 329.262H381.098L378.73 298.535H414.809L412.441 329.262Z" fill="#F1F2F2"/>
<path d="M417.141 302.117H376.395L375.23 291.75H418.309L417.141 302.117Z" fill="#F6F7F8"/>
<path d="M124.258 82.0938H68.207V20.5469H124.258V82.0938Z" fill="#E1E1E1"/>
<path d="M130.332 82.0938H72.4336V20.5469H130.332V82.0938Z" fill="#F6F7F8"/>
<path d="M77.2812 77.2461V25.3945H125.48V77.2461H77.2812Z" fill="white"/>
<path d="M88.9648 64.6758V37.9648H113.797V64.6758H88.9648Z" fill="#F6F7F8"/>
<path d="M410.051 84.8984H357.98V27.7227H410.051V84.8984Z" fill="#E1E1E1"/>
<path d="M415.691 84.8984H361.906V27.7227H415.691V84.8984Z" fill="#F6F7F8"/>
<path d="M366.41 80.3906V32.2266H411.184V80.3906H366.41Z" fill="white"/>
<path d="M402.766 56.3086C402.766 64.0234 396.512 70.2773 388.797 70.2773C381.086 70.2773 374.828 64.0234 374.828 56.3086C374.828 48.5937 381.086 42.3398 388.797 42.3398C396.512 42.3398 402.766 48.5937 402.766 56.3086Z" fill="#F6F7F8"/>
<path d="M182.488 102.902H140.91V57.2461H182.488V102.902Z" fill="#E1E1E1"/>
<path d="M186.992 102.902H144.043V57.2461H186.992V102.902Z" fill="#F6F7F8"/>
<path d="M147.641 99.3047V60.8438H183.395V99.3047H147.641Z" fill="white"/>
<path d="M165.52 70.3516L155.742 87.2891H175.297L165.52 70.3516Z" fill="#F6F7F8"/>
<path d="M443.891 361.285C443.891 367.539 357.082 372.609 250 372.609C142.918 372.609 56.1094 367.539 56.1094 361.285C56.1094 355.031 142.918 349.965 250 349.965C357.082 349.965 443.891 355.031 443.891 361.285Z" fill="#F6F7F8"/>
<path d="M349.246 108.48L339.328 104.457C339.328 104.457 326.238 128.332 322.488 129.535C317.387 131.176 306.836 135.734 300.566 136.59C299.719 137.578 298.324 140.691 298.461 141.828C306.871 144.633 325.352 140.91 329.309 137.973C338.324 131.273 349.246 108.48 349.246 108.48Z" fill="#F58B7D"/>
<path d="M352.301 103.062C354.145 109.902 344.125 123.641 344.125 123.641L330.965 116.258C330.965 116.258 333.418 110.609 336.422 104.859C341.273 95.5703 350.191 95.2578 352.301 103.062Z" fill="#3F75BA"/>
<path d="M338.473 120.469L330.965 116.258C330.965 116.258 333.418 110.609 336.422 104.859C338.402 101.066 341.062 98.7695 343.66 97.9102C343.648 97.9375 342.09 101.422 340.547 108.176C338.461 111.262 336.965 116.258 336.211 119.195L338.473 120.465V120.469ZM343.664 97.9102C344.031 97.7891 344.398 97.6953 344.766 97.6328C344.094 97.7969 343.695 97.9023 343.664 97.9102Z" fill="#2C65B0"/>
<path d="M338.473 120.465L336.211 119.195C336.965 116.258 338.461 111.262 340.547 108.176C339.789 111.492 339.035 115.594 338.473 120.465Z" fill="#0550A2"/>
<path d="M343.66 97.9102C343.66 97.9102 333.441 120.648 339.398 162.988C351.535 162.988 373.766 162.988 379.672 162.988C380.313 156.805 378.195 126.648 385.863 97.5234C385.863 97.5234 379.043 96.1367 372.484 95.8203C367.352 95.5742 359.914 95.4102 355.363 95.8203C349.367 96.3672 343.66 97.9102 343.66 97.9102Z" fill="#3F75BA"/>
<path d="M379.672 162.988C373.766 162.988 351.535 162.988 339.398 162.988C339.117 160.98 338.871 159.016 338.66 157.094L368.602 147.375C373.277 145.977 377.348 143.035 380.121 139.02C380.199 137.199 380.297 135.32 380.422 133.379C379.496 147.992 380.039 159.441 379.672 162.988ZM338.125 151.535C337.711 146.465 337.535 141.738 337.535 137.363C337.531 111.547 343.66 97.9102 343.66 97.9102C343.66 97.9102 349.367 96.3672 355.363 95.8203C357.371 95.6406 359.938 95.5703 362.617 95.5703C366.023 95.5703 369.613 95.6836 372.484 95.8203C378.332 96.1055 384.391 97.2344 385.633 97.4766C385.234 97.4062 384.832 97.3711 384.426 97.3711C381.242 97.3711 377.898 99.582 375.707 104.336C371.727 112.965 369.633 119.406 369.633 119.406L372.293 120.492C369.699 125.848 367.031 130.656 365.523 131.344C360.621 133.574 348.207 141.289 342.93 145.012C342.77 145.699 342.766 147.023 342.91 148.223L338.121 151.535" fill="#2C65B0"/>
<path d="M368.426 364.133C349.527 364.133 334.262 363.266 334.324 362.191C334.387 361.117 349.758 360.246 368.652 360.246C387.551 360.246 402.816 361.117 402.754 362.191C402.691 363.266 387.32 364.133 368.426 364.133Z" fill="#DFE4EA"/>
<path d="M368.32 351.145L361.156 353.906L354.996 337.961L362.164 335.199L368.32 351.145Z" fill="#F58B7D"/>
<path d="M393.051 354.5H385.523L382.762 337.066H390.289L393.051 354.5Z" fill="#F58B7D"/>
<path d="M385.039 353.629H393.496C393.805 353.629 394.059 353.844 394.105 354.145L395.203 360.836C395.316 361.531 394.73 362.188 394.02 362.176C391.07 362.125 389.648 361.953 385.93 361.953C383.641 361.953 378.91 362.191 375.75 362.191C372.66 362.191 372.359 359.066 373.672 358.781C379.547 357.512 381.836 355.762 383.789 354.094C384.141 353.793 384.59 353.629 385.039 353.629Z" fill="#192F36"/>
<path d="M359.973 350.996L367.992 348.664C368.293 348.574 368.602 348.707 368.734 348.973L371.707 354.969C372.016 355.59 371.652 356.371 370.957 356.562C368.051 357.355 366.098 357.852 362.461 358.906C359.949 359.637 357.391 360.828 354.91 361.621C353.187 362.168 349.152 362.191 347.062 362.191C343.973 362.191 343.281 358.93 344.605 358.781C347.961 358.406 348.41 358.582 350.262 357.652C353.32 356.117 355.687 354.844 358.336 352.07C358.801 351.586 359.34 351.18 359.973 350.996Z" fill="#192F36"/>
<path d="M301.832 136.52L293.547 133.031L290.137 142.211C290.137 142.211 294.918 143.078 300.379 142.211L301.832 136.52Z" fill="#F58B7D"/>
<path d="M287.391 132.809L287.172 138.914L290.137 142.211L293.547 133.031L287.391 132.809Z" fill="#F58B7D"/>
<path d="M355 337.965L358.176 346.188L365.344 343.422L362.172 335.203L355 337.965Z" fill="#EA6F63"/>
<path d="M390.289 337.07H382.762L384.188 346.059H391.719L390.289 337.07Z" fill="#EA6F63"/>
<path d="M338.656 157.094C338.441 155.195 338.27 153.344 338.121 151.535C338.27 153.344 338.449 155.195 338.66 157.094H338.656ZM380.422 133.379C380.527 131.66 380.656 129.898 380.809 128.098C380.812 128.098 380.812 128.098 380.812 128.094C380.742 128.941 380.676 129.781 380.613 130.613C380.543 131.547 380.477 132.469 380.422 133.379Z" fill="#CECECE"/>
<path d="M338.66 157.094C338.449 155.195 338.27 153.344 338.125 151.535L342.91 148.223C343.027 149.188 343.234 150.07 343.531 150.473C352.504 148.844 369.762 142.207 373.359 138.836C375.934 136.426 378.496 132.441 380.809 128.098C380.656 129.898 380.527 131.66 380.422 133.379C380.297 135.32 380.199 137.199 380.121 139.02C377.348 143.035 373.277 145.977 368.602 147.375L338.66 157.094Z" fill="#0550A2"/>
<path d="M347.898 118.734L346.879 118.613C347.477 113.625 351.199 109.68 355.137 109.773L355.105 110.801C351.707 110.703 348.434 114.262 347.898 118.734Z" fill="white"/>
<path d="M353.227 127.969H353.059L353.09 126.941C356.527 127.066 359.758 123.48 360.293 119.008L361.312 119.129C360.727 124.047 357.121 127.969 353.227 127.969Z" fill="white"/>
<path d="M371.918 76.5469C370.516 82.0547 368.848 92.1445 372.484 95.8203C372.484 95.8203 369.941 101.406 359.707 101.406C350.355 101.406 355.363 95.8203 355.363 95.8203C361.594 94.3555 361.703 89.7969 360.883 85.5195L371.918 76.5469Z" fill="#F58B7D"/>
<path d="M367.418 80.207L360.887 85.5156C361.086 86.5273 361.227 87.5547 361.238 88.5508C363.145 90.4531 366.98 85.6367 367.371 83.1797C367.566 81.9531 367.586 80.7773 367.418 80.207Z" fill="#EA6F63"/>
<path d="M349.664 76.4766C350.621 78.1914 352.309 79.2578 353.906 79.6133C356.309 80.1484 357.516 77.9375 356.852 75.7188C356.258 73.7148 354.289 71.0273 351.875 71.4883C349.5 71.9414 348.57 74.5156 349.664 76.4766Z" fill="#EA6F63"/>
<path d="M353.625 58.8477C349.887 60.5625 348.566 75.4219 353.27 77.6172C357.973 79.8125 360.711 55.6016 353.625 58.8477Z" fill="#192F36"/>
<path d="M373.059 68.2578C372.164 75.7148 372.02 80.1055 368.027 83.9336C362.023 89.6875 353.016 86.2734 351.676 78.8281C350.465 72.1289 352.133 61.0586 359.605 58.0898C366.969 55.1641 373.953 60.7969 373.059 68.2578Z" fill="#F58B7D"/>
<path d="M360.773 62.7148C366.305 61.2969 370.379 60.3359 368.926 64.9531C366.988 71.1055 364.668 77.0625 367.781 77.3438C369.676 77.5117 378.074 73.9453 377.012 70.3398C376.078 67.2031 379.984 66.3555 380.703 64.7539C383.301 58.9883 375.891 59.7383 377.207 56.2461C378.492 52.8516 371.238 47.1094 367.223 49.9141C360.715 54.4531 349.535 54.3906 355.414 46.9414C359.621 41.6055 352.109 42.7031 352.109 42.7031C352.109 42.7031 356.648 45.3945 349.012 49.5547C340.918 53.9648 348.328 65.8984 360.773 62.7148Z" fill="#192F36"/>
<path d="M375.945 76.4766C374.785 78.1914 372.973 79.2578 371.336 79.6133C368.871 80.1484 367.926 77.9375 368.848 75.7188C369.676 73.7148 371.961 71.0273 374.316 71.4883C376.641 71.9414 377.27 74.5156 375.945 76.4766Z" fill="#F58B7D"/>
<path d="M339.398 162.988C339.398 162.988 332.641 223.484 332.113 246.445C331.566 270.328 355.023 344.84 355.023 344.84L367.031 339.797C367.031 339.797 353.047 271.723 354.988 248.27C357.109 222.699 365.871 162.988 365.871 162.988H339.398Z" fill="#A7CF66"/>
<path d="M357.359 225.984C354.598 213.578 351.195 193.094 355.418 181.461C356.348 191.051 357.551 203.102 358.797 214.418C358.297 218.336 357.812 222.227 357.359 225.984Z" fill="#A7CF66"/>
<path d="M366.488 335.875L367.914 339.703L354.07 345.516L351.891 341.457L366.488 335.875Z" fill="#3F75BA"/>
<path d="M353.688 162.988C353.688 162.988 358.855 220.527 362.285 242.082C366.035 265.688 380.777 344.32 380.777 344.32H394.57C394.57 344.32 386.309 267.594 384.746 244.223C383.051 218.855 379.672 162.988 379.672 162.988H353.688Z" fill="#A7CF66"/>
<path d="M394.781 340.727L395.242 344.578H380.086L379.004 340.152L394.781 340.727Z" fill="#3F75BA"/>
<path d="M389.496 336.172L389.371 336.055C389.297 335.359 381.844 266.09 380.441 245.09C378.922 222.305 375.859 171.777 375.828 171.273L375.949 171.137H375.961L376.086 171.258C376.117 171.766 379.176 222.289 380.699 245.074C382.102 266.066 389.551 335.332 389.625 336.027L389.512 336.168L389.496 336.172Z" fill="#A7CF66"/>
<path d="M361.625 70.3398C361.59 70.9492 361.238 71.4414 360.84 71.4414C360.445 71.4414 360.152 70.9492 360.187 70.3398C360.223 69.7344 360.574 69.2422 360.969 69.2422C361.367 69.2422 361.66 69.7344 361.625 70.3398Z" fill="#192F36"/>
<path d="M354.762 70.3398C354.727 70.9492 354.375 71.4414 353.977 71.4414C353.578 71.4414 353.285 70.9492 353.32 70.3398C353.359 69.7344 353.711 69.2422 354.105 69.2422C354.504 69.2422 354.797 69.7344 354.762 70.3398Z" fill="#192F36"/>
<path d="M356.926 70.6445C356.926 70.6445 355.34 74.1484 353.719 75.8359C354.734 76.8398 356.59 76.3828 356.59 76.3828L356.926 70.6445Z" fill="#F15855"/>
<path d="M357.098 78.9297C357 78.9297 356.926 78.8477 356.93 78.75C356.937 78.6523 357.02 78.5703 357.121 78.5703C359.785 78.5703 361.141 76.7109 361.152 76.6914L361.402 76.6406L361.437 76.8867C361.379 76.9687 359.957 78.9297 357.098 78.9297Z" fill="#192F36"/>
<path d="M362.844 68.4922C362.742 68.5352 362.625 68.5273 362.531 68.4687C361.219 67.6406 359.996 68.1953 359.98 68.2031C359.812 68.2891 359.594 68.2109 359.516 68.0352C359.441 67.8555 359.527 67.6445 359.711 67.5586C359.777 67.5273 361.309 66.832 362.937 67.8594C363.098 67.9609 363.141 68.1797 363.027 68.3477L362.844 68.4922Z" fill="#192F36"/>
<path d="M352.105 66.5L351.969 66.4219C351.832 66.293 351.828 66.0664 351.969 65.918C353.367 64.4453 354.984 64.668 355.051 64.6797C355.242 64.6992 355.367 64.8906 355.328 65.0859C355.289 65.2813 355.102 65.4141 354.906 65.3867C354.855 65.3789 353.59 65.2148 352.477 66.3945C352.375 66.5 352.23 66.5352 352.105 66.5Z" fill="#192F36"/>
<path d="M389.73 107.363L379.328 104.598C379.328 104.598 369.125 129.703 365.523 131.344C360.621 133.574 348.207 141.289 342.93 145.012C342.641 146.254 342.867 149.57 343.531 150.473C352.504 148.844 369.762 142.207 373.359 138.836C381.566 131.148 389.73 107.363 389.73 107.363Z" fill="#F58B7D"/>
<path d="M381.445 353.387C381.352 353.387 381.27 353.402 381.211 353.434C381.16 353.457 381.102 353.504 381.086 353.641C381.051 353.926 381.117 354.137 381.289 354.289C381.68 354.637 382.66 354.684 383.953 354.426C383.133 353.934 382.02 353.387 381.445 353.387ZM382.473 354.945C381.898 354.945 381.367 354.848 381.043 354.563C380.785 354.336 380.684 354.016 380.73 353.617C380.766 353.32 380.934 353.18 381.066 353.113C381.914 352.688 384.266 354.18 384.527 354.352L384.602 354.531L384.457 354.676C383.926 354.801 383.168 354.945 382.473 354.945Z" fill="#3F75BA"/>
<path d="M383.074 351.629L382.992 351.633C382.762 351.66 382.734 351.77 382.723 351.813C382.598 352.309 383.484 353.555 384.227 354.145C384.176 353.508 384.008 352.242 383.477 351.785C383.352 351.68 383.223 351.629 383.074 351.629ZM384.414 354.68L384.332 354.66C383.574 354.234 382.168 352.586 382.375 351.746C382.414 351.594 382.539 351.332 382.973 351.281C383.254 351.246 383.5 351.324 383.719 351.508C384.551 352.223 384.602 354.395 384.605 354.488L384.516 354.652L384.414 354.68Z" fill="#3F75BA"/>
<path d="M354.289 352.512C354.156 352.547 354.047 352.594 353.977 352.656C353.914 352.711 353.891 352.777 353.898 352.867C353.926 353.105 354.027 353.273 354.215 353.375C354.746 353.664 355.98 353.434 357.566 352.77C356.449 352.535 354.992 352.344 354.289 352.512ZM355.918 353.703C355.18 353.879 354.48 353.934 354.031 353.688C353.746 353.535 353.582 353.277 353.547 352.926C353.52 352.715 353.594 352.531 353.746 352.395C354.555 351.68 357.816 352.449 358.187 352.539L358.312 352.695L358.199 352.875C357.594 353.152 356.734 353.504 355.918 353.703Z" fill="#3F75BA"/>
<path d="M355.801 350.359L355.695 350.391C355.387 350.5 355.391 350.625 355.391 350.668C355.402 351.188 356.84 352.137 357.855 352.457C357.652 351.902 357.164 350.789 356.453 350.438C356.238 350.332 356.023 350.305 355.801 350.359ZM358.164 352.887L358.09 352.891C357.121 352.711 355.055 351.559 355.031 350.699C355.027 350.496 355.121 350.223 355.598 350.059C355.941 349.93 356.297 349.953 356.629 350.117C357.715 350.652 358.281 352.574 358.305 352.656L358.262 352.828L358.164 352.887Z" fill="#3F75BA"/>
<path d="M343.777 144.422L333.352 149.223L332.141 152.164L335.992 154.758C335.992 154.758 343.188 153.973 345.234 149.352L343.777 144.422Z" fill="#F58B7D"/>
<path d="M344.223 150.645C343.57 146.77 342.297 145.004 342.285 144.984L343.93 143.754C343.992 143.836 345.504 145.879 346.25 150.305L344.223 150.645Z" fill="#192F36"/>
<path d="M345.996 145.84C346.336 146.676 345.793 147.684 344.785 148.094C343.773 148.5 342.684 148.152 342.348 147.316C342.008 146.48 342.551 145.469 343.559 145.063C344.566 144.656 345.66 145.004 345.996 145.84Z" fill="#192F36"/>
<path d="M326.305 153.098L327.688 154.5L337.047 150.496L333.352 149.223L326.305 153.098Z" fill="#F58B7D"/>
<path d="M354.07 345.516L351.891 341.457L366.488 335.875L367.914 339.703L364.465 341.148L357.379 344.125L354.07 345.516Z" fill="#2C65B0"/>
<path d="M395.242 344.578H380.086L379.004 340.152L394.781 340.727L395.242 344.578Z" fill="#2C65B0"/>
<path d="M392.441 104.488C395.191 113.355 384.48 125.469 384.48 125.469L369.633 119.406C369.633 119.406 371.727 112.965 375.707 104.336C380.23 94.5273 389.664 95.5391 392.441 104.488Z" fill="#3F75BA"/>
<path d="M384.48 125.469L382.551 124.68L372.293 120.492L369.633 119.406C369.633 119.406 371.727 112.965 375.707 104.336C377.898 99.582 381.242 97.3711 384.426 97.3711C387.809 97.3711 391.012 99.875 392.441 104.488C392.758 105.5 392.895 106.555 392.895 107.633C392.887 115.965 384.48 125.469 384.48 125.469Z" fill="#2C65B0"/>
<path d="M244.875 16.6445H238.488V15.6172H244.875V16.6445Z" fill="#3F75BA"/>
<path d="M327.855 73.5898L326.832 73.543L327.598 56.3828L328.621 56.4297L327.855 73.5898Z" fill="#3F75BA"/>
<path d="M325.613 20.2422H207.613L196.629 265.961H314.629L325.613 20.2422Z" fill="#3F75BA"/>
<path d="M311.105 269.336H307.734L307.883 265.961H311.258L311.105 269.336ZM207.312 26.9844H203.941L204.09 23.6133H207.465L207.312 26.9844Z" fill="#FEFEFF"/>
<path d="M311.258 265.961H307.883L318.566 26.9844H207.312L207.465 23.6133H322.09L311.258 265.961Z" fill="#A3C1E5"/>
<path d="M307.582 272.703H267.398V269.336H307.734L307.582 272.703Z" fill="#F2F7FC"/>
<path d="M267.398 272.703H264.16V271.035H191.289C191.789 269.84 192.246 268.652 192.645 267.492H193.188L193.105 269.336H267.398V272.703ZM263.773 272.703H190.566C190.762 272.277 190.945 271.848 191.129 271.422H263.773V272.703ZM193.207 267.105H192.777C192.953 266.578 193.121 266.055 193.277 265.535L193.207 267.105Z" fill="#EDF3FA"/>
<path d="M193.188 267.492H192.645C192.691 267.363 192.734 267.234 192.777 267.105H193.207L193.188 267.492Z" fill="#D5DAE4"/>
<path d="M264.16 272.703H263.773V271.422H191.129C191.184 271.293 191.234 271.164 191.289 271.035H264.16V272.703Z" fill="#D5DAE4"/>
<path d="M194.328 242.027H191.41C191.277 241.652 191.145 241.277 191.008 240.902L200.57 26.9844H203.941L194.328 242.027Z" fill="#F2F7FC"/>
<path d="M193.926 251.059C193.602 249.398 193.184 247.695 192.676 245.957H194.152L193.926 251.059ZM194.168 245.57H192.562C192.215 244.402 191.828 243.219 191.41 242.027H194.328L194.168 245.57Z" fill="#EDF3FA"/>
<path d="M194.152 245.957H192.676C192.637 245.828 192.602 245.699 192.562 245.57H194.168L194.152 245.957Z" fill="#D5DAE4"/>
<path d="M307.734 269.336H267.398V265.961H307.883L307.734 269.336ZM197.699 242.027H194.328L203.941 26.9844H207.312L198.27 229.312H195.668C195.668 231.609 196.512 233.77 197.984 235.633L197.699 242.027Z" fill="#EFF4FB"/>
<path d="M267.398 269.336H193.105L193.188 267.492H264.16V265.961H267.398V269.336ZM263.773 267.105H193.207L193.277 265.535C194.141 262.645 194.629 259.918 194.629 257.453C194.629 257.242 194.621 257.035 194.617 256.832C194.551 254.992 194.309 253.059 193.926 251.059L194.152 245.957H197.523L196.629 265.961H263.773V267.105ZM197.539 245.57H194.168L194.328 242.027H197.699L197.539 245.57Z" fill="#EDF3FA"/>
<path d="M264.16 267.492H193.188L193.207 267.105H263.773V265.961H264.16V267.492ZM197.523 245.957H194.152L194.168 245.57H197.539L197.523 245.957Z" fill="#E2E7F1"/>
<path d="M197.984 235.633C196.512 233.77 195.668 231.609 195.668 229.312H198.27L197.984 235.633Z" fill="#E2E7F1"/>
<path d="M307.883 265.961H196.629L197.523 245.957L197.539 245.57L197.699 242.027L197.984 235.633L198.27 229.312L207.312 26.9844H318.566L307.883 265.961ZM216.668 229.086L215.66 251.625H283.391L284.398 229.086H216.668ZM236.098 88.4805C240.465 94.8828 247.824 99.0469 256.344 99.0469C264.859 99.0469 272.602 94.8828 277.539 88.4805C280.812 84.2578 282.855 79.0586 283.105 73.4258C283.738 59.2773 272.781 47.8086 258.633 47.8086C244.492 47.8086 232.512 59.2773 231.879 73.4258C231.629 79.0586 233.203 84.2578 236.098 88.4805Z" fill="#9CBCE3"/>
<path d="M305.137 134.152H204.418L203.578 152.961H304.297L305.137 134.152Z" fill="white"/>
<path d="M259.812 120.438H205.031L204.656 128.852H259.438L259.812 120.438Z" fill="#A7CF66"/>
<path d="M302.867 184.898H202.148L201.309 203.703H302.027L302.867 184.898Z" fill="white"/>
<path d="M283.391 251.625H215.66L216.668 229.086H284.398L283.391 251.625Z" fill="#A7CF66"/>
<path d="M212.266 254.879H279.754L280.75 232.574H213.262L212.266 254.879ZM279.867 255.113H212.141L212.055 255.078L212.02 254.992L213.027 232.449L213.148 232.336H280.875L280.961 232.375L280.992 232.461L279.984 255L279.867 255.113Z" fill="white"/>
<path d="M247.977 171.184H202.762L202.387 179.598H247.602L247.977 171.184Z" fill="#A7CF66"/>
<path d="M283.105 73.4258C282.855 79.0586 280.812 84.2578 277.539 88.4805C272.602 94.8828 264.859 99.0469 256.344 99.0469C247.824 99.0469 240.465 94.8828 236.098 88.4805C233.203 84.2578 231.629 79.0586 231.879 73.4258C232.512 59.2773 244.492 47.8086 258.633 47.8086C272.781 47.8086 283.738 59.2773 283.105 73.4258Z" fill="white"/>
<path d="M285.516 53.1719C285.449 54.668 284.906 56.0508 284.035 57.1719C282.723 58.8711 280.668 59.9805 278.402 59.9805C276.141 59.9805 274.188 58.8711 273.023 57.1719C272.258 56.0508 271.836 54.668 271.902 53.1719C272.07 49.4102 275.254 46.3633 279.012 46.3633C282.773 46.3633 285.684 49.4102 285.516 53.1719Z" fill="#A7CF66"/>
<path d="M215.266 143.559C215.191 145.223 213.781 146.57 212.117 146.57C210.453 146.57 209.164 145.223 209.238 143.559C209.312 141.895 210.723 140.543 212.387 140.543C214.051 140.543 215.34 141.895 215.266 143.559Z" fill="#192F36"/>
<path d="M228.754 143.559C228.68 145.223 227.27 146.57 225.605 146.57C223.941 146.57 222.652 145.223 222.727 143.559C222.801 141.895 224.211 140.543 225.875 140.543C227.539 140.543 228.828 141.895 228.754 143.559Z" fill="#192F36"/>
<path d="M242.238 143.559C242.164 145.223 240.758 146.57 239.094 146.57C237.426 146.57 236.141 145.223 236.215 143.559C236.285 141.895 237.695 140.543 239.359 140.543C241.023 140.543 242.313 141.895 242.238 143.559Z" fill="#192F36"/>
<path d="M212.996 194.301C212.922 195.965 211.512 197.312 209.848 197.312C208.184 197.312 206.895 195.965 206.969 194.301C207.043 192.637 208.453 191.285 210.117 191.285C211.781 191.285 213.07 192.637 212.996 194.301Z" fill="#192F36"/>
<path d="M226.484 194.301C226.41 195.965 225 197.312 223.336 197.312C221.672 197.312 220.383 195.965 220.457 194.301C220.531 192.637 221.941 191.285 223.605 191.285C225.27 191.285 226.559 192.637 226.484 194.301Z" fill="#192F36"/>
<path d="M239.973 194.301C239.898 195.965 238.488 197.312 236.824 197.312C235.16 197.312 233.871 195.965 233.945 194.301C234.02 192.637 235.43 191.285 237.094 191.285C238.758 191.285 240.047 192.637 239.973 194.301Z" fill="#192F36"/>
<path d="M253.461 194.301C253.383 195.965 251.977 197.312 250.313 197.312C248.645 197.312 247.355 195.965 247.434 194.301C247.508 192.637 248.914 191.285 250.578 191.285C252.242 191.285 253.531 192.637 253.461 194.301Z" fill="#192F36"/>
<path d="M266.945 194.301C266.871 195.965 265.461 197.312 263.797 197.312C262.133 197.312 260.844 195.965 260.918 194.301C260.992 192.637 262.402 191.285 264.066 191.285C265.73 191.285 267.02 192.637 266.945 194.301Z" fill="#192F36"/>
<path d="M268.234 64.8633C267.98 70.5859 263.133 75.2266 257.41 75.2266C251.687 75.2266 247.258 70.5859 247.516 64.8633C247.77 59.1406 252.613 54.5039 258.34 54.5039C264.062 54.5039 268.492 59.1406 268.234 64.8633Z" fill="#3F75BA"/>
<path d="M277.539 88.4805C272.602 94.8828 264.859 99.0469 256.344 99.0469C247.824 99.0469 240.465 94.8828 236.098 88.4805C240.957 83.6406 248.652 80.4961 257.172 80.4961C265.699 80.4961 273.113 83.6406 277.539 88.4805Z" fill="#3F75BA"/>
<path d="M257.41 75.2266C251.848 75.2266 247.5 70.8359 247.504 65.332C247.504 65.1758 247.508 65.0195 247.516 64.8633C247.77 59.1406 252.613 54.5039 258.34 54.5039C263.902 54.5039 268.25 58.8906 268.246 64.3984C268.246 64.5508 268.242 64.707 268.234 64.8633C267.98 70.5859 263.133 75.2266 257.41 75.2266Z" fill="#A7CF66"/>
<path d="M256.344 99.0469C247.824 99.0469 240.465 94.8828 236.098 88.4805C240.957 83.6406 248.652 80.4961 257.172 80.4961C265.699 80.4961 273.113 83.6406 277.539 88.4805C272.602 94.8828 264.859 99.0469 256.344 99.0469Z" fill="#A7CF66"/>
<path d="M130.406 157.492C129.461 159.566 128.465 161.855 127.59 164.082C126.707 166.332 125.824 168.586 125.059 170.867C123.57 175.438 122.172 180.047 121.484 184.668L121.258 186.141C121.238 186.316 121.254 186.57 121.328 186.887C121.477 187.523 121.871 188.371 122.43 189.207C123.555 190.891 125.152 192.602 126.871 194.188C128.59 195.797 130.453 197.34 132.391 198.801C134.312 200.277 136.336 201.723 138.316 203.078L136.453 206.586C131.695 204.508 127.262 202.02 122.973 198.898C120.859 197.289 118.777 195.559 116.93 193.219C116.02 192.039 115.129 190.707 114.539 188.945C114.258 188.066 114.059 187.074 114.059 186.004C114.062 185.754 114.078 185.406 114.094 185.242L114.145 184.746L114.242 183.75C114.789 178.449 115.961 173.355 117.508 168.414C118.289 165.945 119.121 163.504 120.07 161.105C121.043 158.691 122 156.375 123.211 153.945L130.406 157.492Z" fill="#F58B7D"/>
<path d="M136.914 202.48L143.98 198.895L142.152 206.664C142.152 206.664 137.301 208.016 135.047 205.664L136.914 202.48Z" fill="#F58B7D"/>
<path d="M150.449 200.172L148.57 206.59L142.152 206.664L143.98 198.895L150.449 200.172Z" fill="#F58B7D"/>
<path d="M160.434 120.051C160.434 120.051 161.047 122.305 162.02 124.004C161.184 124.781 160.434 124.512 160.434 124.512V120.051Z" fill="#F15855"/>
<path d="M159.473 118.961C159.473 119.594 159.809 120.109 160.223 120.109C160.637 120.109 160.973 119.594 160.973 118.961C160.973 118.328 160.637 117.816 160.223 117.816C159.809 117.816 159.473 118.328 159.473 118.961Z" fill="#192F36"/>
<path d="M160.039 117.852L161.562 117.414C161.562 117.414 160.781 118.602 160.039 117.852Z" fill="#192F36"/>
<path d="M140.898 127.383C141.809 132.039 142.719 140.57 139.465 143.676C139.465 143.676 140.734 148.398 149.387 148.398C158.898 148.398 153.934 143.676 153.934 143.676C148.742 142.438 148.875 138.586 149.777 134.969L140.898 127.383Z" fill="#F58B7D"/>
<path d="M138.371 116.789C138.852 124.562 138.887 127.859 142.813 131.852C148.715 137.852 158.156 135.566 160.012 127.809C161.68 120.824 160.617 109.289 153.012 106.195C145.516 103.148 137.895 109.02 138.371 116.789Z" fill="#F58B7D"/>
<path d="M139.141 107.996C135.242 109.418 130.043 108.359 132.082 120.391C134.242 133.125 130.918 137.316 130.918 137.316C130.918 137.316 145.711 140.469 160.809 137.129C160.809 137.129 156.199 129.066 157.492 123.184C159.145 115.68 157.836 112.906 157.836 112.906C157.836 112.906 144.621 106 139.141 107.996Z" fill="#192F36"/>
<path d="M155.641 120.84C155.625 122.383 156.164 123.934 156.863 125.008C157.918 126.629 159.168 125.969 159.48 124.289C159.762 122.773 159.555 120.105 158.203 119.07C156.875 118.051 155.66 119.078 155.641 120.84Z" fill="#F58B7D"/>
<path d="M135.754 109.355C134.629 106.211 139.973 101.375 151.27 103.387C162.566 105.398 163.062 114.797 163.062 114.797L160.777 112.082L160.879 114.938L149.27 117.172L135.754 109.355Z" fill="#192F36"/>
<path d="M136.711 144.203C136.555 143.242 137.199 142.34 138.16 142.18C141.68 141.598 149.676 140.422 153.699 140.98C156.691 141.395 157.48 143.141 157.609 144.566C157.699 145.629 156.824 146.52 155.766 146.473L138.375 145.688C137.539 145.648 136.844 145.031 136.711 144.203Z" fill="#3F75BA"/>
<path d="M157.539 144.082C156.344 143.926 155.121 143.785 153.934 143.676C151.855 143.488 149.84 143.414 147.777 143.414C145.16 143.414 142.465 143.531 139.465 143.676C138.531 143.723 137.598 143.785 136.688 143.867C136.715 143.039 137.316 142.32 138.16 142.18C141.035 141.707 146.895 140.836 151.137 140.836C152.09 140.836 152.961 140.879 153.699 140.98C156.359 141.348 157.277 142.77 157.539 144.082Z" fill="#1E3365"/>
<path d="M146.762 318.91L153.203 323.383L163.996 308.758L157.551 304.285L146.762 318.91Z" fill="#F58B7D"/>
<path d="M131.715 318.613L138.531 322.496L148.086 307.027L141.266 303.145L131.715 318.613Z" fill="#F58B7D"/>
<path d="M163.992 308.762L158.43 316.301L151.984 311.824L157.547 304.285L163.992 308.762Z" fill="#EA6F63"/>
<path d="M141.262 303.148L148.082 307.035L143.156 315.004L136.336 311.121L141.262 303.148Z" fill="#EA6F63"/>
<path d="M152.199 193.035C152.199 193.035 177.379 224.773 172.652 255.117C168.84 279.629 146.742 312.82 146.742 312.82L136.352 307.656C136.352 307.656 147.641 285.602 155.055 262.215C158.16 252.41 156.836 241.605 151.023 233.117C138.27 214.488 117.836 225.574 131.582 193.035H152.199Z" fill="#3F75BA"/>
<path d="M146.742 312.82L145.031 311.973L138.41 308.684V303.473C142.012 295.984 149.586 279.461 155.055 262.215C156.141 258.789 156.684 255.238 156.684 251.707C156.688 247.758 156.008 243.832 154.641 240.129C156.867 239.547 158.52 237.516 158.52 235.113V224.543C158.52 223.934 158.414 223.352 158.219 222.809C160.359 225.777 162.461 228.824 164.43 231.879C166.512 244.773 168.938 259.734 169.977 266.145C170.434 264.707 170.852 263.273 171.227 261.859C171.16 262.105 171.094 262.355 171.023 262.605C170.898 263.062 170.773 263.52 170.641 263.977C169.73 267.105 168.629 270.285 167.398 273.449C163.57 283.297 158.52 292.973 154.371 300.266C154.219 300.535 154.066 300.801 153.914 301.062C152.711 303.164 151.594 305.047 150.613 306.664C150.52 306.816 150.426 306.969 150.336 307.117C148.156 310.695 146.742 312.82 146.742 312.82ZM156.492 220.438C155.617 219.766 154.523 219.363 153.34 219.363H132.996C129.445 217.234 127.012 214.785 127.012 209.691C127.012 206.156 128.188 201.34 130.988 194.465H135.25C138.559 198.141 147.668 208.473 156.492 220.438Z" fill="#1E3365"/>
<path d="M171.227 261.859C171.828 259.562 172.312 257.305 172.652 255.117C173.031 252.703 173.219 250.273 173.242 247.855C173.242 247.859 173.242 247.859 173.242 247.859C173.219 250.277 173.031 252.703 172.656 255.117C172.312 257.305 171.828 259.562 171.227 261.859Z" fill="#989898"/>
<path d="M169.977 266.145C168.937 259.734 166.512 244.773 164.43 231.879C167.949 237.328 171.055 242.793 173.242 247.855C173.219 250.273 173.031 252.703 172.652 255.117C172.312 257.305 171.828 259.562 171.227 261.859C170.852 263.273 170.434 264.707 169.977 266.145Z" fill="#05193B"/>
<path d="M163.445 193.035C163.445 193.035 193.762 232.918 194.617 256.832C195.328 276.871 161.59 315.578 161.59 315.578L151.797 309.238C151.797 309.238 171.523 281.723 176.492 259.23C174.598 236.965 133.949 193.035 133.949 193.035H163.445Z" fill="#3F75BA"/>
<path d="M161.59 315.578L159.812 314.426L153.215 310.156L151.797 309.238C151.797 309.238 171.523 281.723 176.492 259.23C176.203 255.859 175.027 251.992 173.242 247.855C171.055 242.793 167.949 237.328 164.43 231.879C162.461 228.824 160.359 225.777 158.219 222.809C157.883 221.863 157.273 221.039 156.492 220.438C147.668 208.473 138.559 198.141 135.25 194.465H163.602C163.891 194.465 164.129 194.324 164.145 194.145L164.16 193.996C168.746 200.199 193.84 235.105 194.617 256.832C194.621 257.035 194.629 257.242 194.629 257.453C194.629 259.918 194.141 262.645 193.277 265.535C193.121 266.055 192.953 266.578 192.777 267.105C192.734 267.234 192.691 267.363 192.645 267.492C192.246 268.652 191.789 269.84 191.289 271.035C191.234 271.164 191.184 271.293 191.129 271.422C190.945 271.848 190.762 272.277 190.566 272.703C187.629 279.281 183.438 286.23 179.148 292.574C179.062 292.703 178.977 292.832 178.891 292.957C178.07 294.164 177.246 295.352 176.434 296.504C176.34 296.633 176.25 296.762 176.16 296.891C174.391 299.379 172.652 301.73 171.023 303.867C170.895 304.035 170.766 304.203 170.641 304.371C169.488 305.879 168.398 307.27 167.398 308.527C163.945 312.875 161.59 315.578 161.59 315.578Z" fill="#1E3365"/>
<path d="M125.934 145.461C122.687 146.227 119.582 158.012 119.582 158.012L132.246 166.465C132.246 166.465 136.465 157.148 134.992 153.066C133.457 148.816 130.031 144.492 125.934 145.461Z" fill="#A7CF66"/>
<path d="M129.977 164.949L129.559 164.672L129.977 164.949Z" fill="#CECECE"/>
<path d="M129.977 164.949L129.559 164.672L127.527 163.312L128.188 155.621C128.914 159.086 129.5 162.16 129.977 164.949Z" fill="#A7CF66"/>
<path d="M167.191 145.688C167.191 145.688 170.93 147.004 163.445 193.035C150.801 193.035 137.734 193.035 131.582 193.035C132.117 180.066 132.133 172.07 125.934 145.461C125.934 145.461 132.609 144.008 139.465 143.676C144.824 143.418 149.219 143.246 153.934 143.676C160.145 144.242 167.191 145.688 167.191 145.688Z" fill="#A7CF66"/>
<path d="M170.43 152.996C171.152 154.992 171.914 157.148 172.711 159.223C173.473 161.324 174.266 163.422 175.082 165.516L177.535 171.797L178.152 173.363L178.465 174.148L178.621 174.543L178.633 174.598C178.59 174.578 178.555 174.383 177.934 173.977C177.629 173.785 177.121 173.605 176.629 173.594C176.133 173.574 175.738 173.695 175.516 173.793C175.062 174.012 175.059 174.102 175.066 174.086C175.098 174.07 175.188 173.984 175.293 173.859C175.73 173.336 176.258 172.43 176.719 171.531C177.191 170.613 177.641 169.633 178.086 168.641C178.969 166.645 179.773 164.566 180.594 162.484C181.402 160.395 182.168 158.273 182.922 156.148L185.199 149.766L189.055 150.738C188.289 155.301 187.305 159.773 186.129 164.262C185.555 166.508 184.891 168.738 184.133 170.988C183.754 172.113 183.332 173.238 182.848 174.387C182.34 175.539 181.84 176.68 180.945 178.004C180.711 178.336 180.445 178.691 180.074 179.082C179.68 179.465 179.227 179.93 178.25 180.367C177.766 180.578 177.09 180.762 176.309 180.73C175.531 180.711 174.746 180.434 174.199 180.094C173.09 179.387 172.707 178.715 172.383 178.207C172.23 177.953 172.098 177.691 172.008 177.504L171.82 177.113L171.441 176.34L170.684 174.785C169.695 172.703 168.727 170.613 167.809 168.496C166.902 166.379 166.016 164.246 165.16 162.098C164.336 159.914 163.523 157.805 162.805 155.484L170.43 152.996Z" fill="#F58B7D"/>
<path d="M167.191 145.688C171.023 146.598 175.328 157.914 175.328 157.914L163.945 167.613C163.945 167.613 156.566 155.273 158.059 151.199C159.613 146.957 162.191 144.492 167.191 145.688Z" fill="#A7CF66"/>
<path d="M186.977 146.238L190.969 142.898L193.75 147.227L191.703 150.84C191.703 150.84 188.441 153.824 185.555 152.309C184.625 150.191 185.203 147.719 186.977 146.238Z" fill="#F58B7D"/>
<path d="M198.223 142.906L197.922 143.996L191.594 145.059L190.969 142.898L198.223 142.906Z" fill="#F58B7D"/>
<path d="M162.402 316.102L150.984 308.715L153.027 305.16L165.859 313.047L162.402 316.102Z" fill="#3F75BA"/>
<path d="M140.734 320.883C141.977 321.516 142.977 321.75 143.457 321.508C143.66 321.406 143.781 321.215 143.82 320.926C143.84 320.77 143.785 320.699 143.734 320.656C143.332 320.316 141.828 320.582 140.734 320.883ZM142.984 321.973C142.074 321.973 140.879 321.398 140.156 320.996L140.062 320.812L140.191 320.656C140.5 320.559 143.207 319.727 143.977 320.371C144.094 320.477 144.23 320.664 144.188 320.977C144.133 321.391 143.941 321.684 143.625 321.84C143.438 321.934 143.223 321.973 142.984 321.973Z" fill="#192F36"/>
<path d="M142.188 318.293C142.094 318.293 142 318.313 141.906 318.359C141.293 318.652 140.781 319.828 140.535 320.539C141.414 320.168 142.617 319.188 142.66 318.641C142.664 318.551 142.645 318.434 142.426 318.344L142.188 318.293ZM140.246 321.02L140.113 320.961L140.066 320.781C140.094 320.691 140.719 318.52 141.746 318.023C142.02 317.895 142.297 317.887 142.57 318C143 318.18 143.043 318.496 143.027 318.668C142.961 319.566 141.125 320.809 140.289 321.012L140.246 321.02Z" fill="#192F36"/>
<path d="M154.371 324.094C155.637 325.32 156.738 326 157.375 325.918C157.598 325.891 157.766 325.77 157.891 325.551L157.902 325.316C157.637 324.781 155.777 324.32 154.371 324.094ZM157.27 326.297C156.145 326.297 154.57 324.848 153.715 323.957L153.68 323.746L153.871 323.645C154.266 323.695 157.742 324.164 158.234 325.148C158.328 325.336 158.32 325.539 158.211 325.734C158.027 326.059 157.762 326.242 157.422 326.285L157.27 326.297Z" fill="#192F36"/>
<path d="M154.223 323.688C155.34 323.75 157.125 323.379 157.359 322.891C157.379 322.852 157.437 322.727 157.18 322.504C156.965 322.32 156.715 322.242 156.426 322.27C155.586 322.344 154.648 323.234 154.223 323.688ZM154.48 324.063C154.223 324.063 153.992 324.047 153.812 324.012L153.672 323.895L153.703 323.711C153.762 323.641 155.113 322.012 156.391 321.898C156.793 321.867 157.129 321.973 157.422 322.223C157.812 322.559 157.785 322.859 157.695 323.051C157.379 323.719 155.648 324.063 154.48 324.063Z" fill="#192F36"/>
<path d="M140.52 319.965L132.039 317.57C131.73 317.48 131.422 317.625 131.293 317.914L128.43 324.352C128.133 325.02 128.543 325.848 129.258 326.035C132.23 326.82 133.703 327.051 137.434 328.105C139.73 328.754 143.016 329.938 146.184 330.836C149.281 331.711 150.406 328.645 149.168 327.988C143.609 325.043 143.172 323.023 141.652 320.789C141.379 320.383 140.973 320.094 140.52 319.965Z" fill="#3F75BA"/>
<path d="M153.945 322.793L146.703 317.766C146.441 317.582 146.102 317.617 145.883 317.848L141.082 323.004C140.586 323.539 140.703 324.457 141.32 324.867C143.875 326.574 145.191 327.273 148.379 329.484C150.336 330.844 154.246 333.859 156.949 335.738C159.598 337.574 161.656 335.039 160.699 334.016C156.402 329.422 155.453 326.547 154.746 323.934C154.617 323.465 154.328 323.059 153.945 322.793Z" fill="#3F75BA"/>
<path d="M148.074 313.484L135.02 306.996L136.371 303.461L150.305 310.293L148.074 313.484Z" fill="#3F75BA"/>
<path d="M131.105 191.168L130 194.02C129.887 194.238 130.148 194.465 130.52 194.465H163.602C163.891 194.465 164.129 194.324 164.145 194.145L164.434 191.293C164.453 191.094 164.203 190.926 163.891 190.926H131.621C131.387 190.926 131.176 191.023 131.105 191.168Z" fill="#3F75BA"/>
<path d="M163.602 194.465H130.52C130.211 194.465 129.973 194.309 129.973 194.125C129.973 194.09 129.98 194.055 130 194.02L131.105 191.168C131.176 191.023 131.387 190.926 131.621 190.926H163.891C164.191 190.926 164.434 191.082 164.434 191.27C164.434 191.277 164.434 191.285 164.434 191.293L164.145 194.145C164.129 194.324 163.891 194.465 163.602 194.465Z" fill="#87AEDC"/>
<path d="M136.309 194.773H135.441C135.27 194.773 135.141 194.688 135.152 194.578L135.559 190.871C135.57 190.766 135.719 190.676 135.891 190.676H136.758C136.93 190.676 137.059 190.766 137.047 190.871L136.641 194.578C136.629 194.688 136.48 194.773 136.309 194.773Z" fill="#3F75BA"/>
<path d="M156.715 194.773H155.852C155.68 194.773 155.547 194.688 155.559 194.578L155.965 190.871C155.977 190.766 156.125 190.676 156.297 190.676H157.164C157.336 190.676 157.465 190.766 157.453 190.871L157.047 194.578C157.035 194.688 156.887 194.773 156.715 194.773Z" fill="#3F75BA"/>
<path d="M135.484 364.137C135.477 364.137 135.465 364.137 135.457 364.137C120.66 364.133 108.707 363.262 108.754 362.191C108.781 361.598 112.457 361.066 118.234 360.711C118.203 361.437 118.707 362.191 119.633 362.191H151.48C152.41 362.191 152.914 361.434 152.883 360.703C158.691 361.062 162.363 361.598 162.336 362.191C162.289 363.266 150.27 364.137 135.484 364.137Z" fill="#ECECEC"/>
<path d="M151.871 359.449C147.133 358.074 141.914 356.301 138.687 354.414C138.598 354.363 138.504 354.324 138.41 354.277V332.848H147.945C149.523 332.848 150.801 331.57 150.801 329.992C150.801 328.418 149.523 327.141 147.945 327.141H138.41V229.316H132.703V327.141H123.168C121.594 327.141 120.312 328.418 120.312 329.992C120.312 331.57 121.594 332.848 123.168 332.848H132.703V354.277C132.609 354.324 132.516 354.363 132.426 354.414C129.199 356.301 123.98 358.074 119.242 359.449C117.687 359.898 118.016 362.191 119.633 362.191H151.48C153.102 362.191 153.43 359.898 151.871 359.449Z" fill="#E1E1E1"/>
<path d="M153.34 240.297H117.773C114.926 240.297 112.594 237.965 112.594 235.113V224.543C112.594 221.691 114.926 219.363 117.773 219.363H153.34C156.188 219.363 158.52 221.691 158.52 224.543V235.113C158.52 237.965 156.188 240.297 153.34 240.297Z" fill="#3F75BA"/>
<path d="M117.449 240.297V242.113C117.449 243.617 119.082 244.844 121.074 244.844H150.039C152.035 244.844 153.668 243.617 153.668 242.113V240.297H117.449Z" fill="#3F75BA"/>
<path d="M150.039 244.844H121.074C119.082 244.844 117.449 243.617 117.449 242.113V240.297H153.668V242.113C153.668 243.617 152.035 244.844 150.039 244.844Z" fill="#759DD3"/>
</svg>
